<mxfile host="65bd71144e">
    <diagram name="Page-1" id="c4acf3e9-155e-7222-9cf6-157b1a14988f">
        <mxGraphModel dx="492" dy="550" grid="1" gridSize="10" guides="1" tooltips="1" connect="1" arrows="1" fold="1" page="1" pageScale="1" pageWidth="850" pageHeight="1100" math="0" shadow="0">
            <root>
                <mxCell id="0"/>
                <mxCell id="1" parent="0"/>
                <mxCell id="5d2195bd80daf111-10" value="&lt;p style=&quot;margin: 4px 0px 0px ; text-align: center ; font-size: 16px&quot;&gt;&lt;i&gt;&lt;font style=&quot;font-size: 16px&quot;&gt;Book&lt;/font&gt;&lt;/i&gt;&lt;/p&gt;&lt;hr size=&quot;1&quot; style=&quot;font-size: 16px&quot;&gt;&lt;p style=&quot;margin: 0px 0px 0px 4px ; font-size: 16px&quot;&gt;&lt;font style=&quot;font-size: 16px&quot;&gt;name: String&lt;br&gt;id: int&lt;/font&gt;&lt;/p&gt;&lt;p style=&quot;margin: 0px 0px 0px 4px ; font-size: 16px&quot;&gt;&lt;font style=&quot;font-size: 16px&quot;&gt;state:int&lt;/font&gt;&lt;/p&gt;&lt;hr size=&quot;1&quot; style=&quot;font-size: 16px&quot;&gt;&lt;p style=&quot;margin: 0px 0px 0px 4px ; font-size: 16px&quot;&gt;&lt;font style=&quot;font-size: 16px&quot;&gt;Book()&lt;/font&gt;&lt;/p&gt;&lt;p style=&quot;margin: 0px 0px 0px 4px ; font-size: 16px&quot;&gt;&lt;font style=&quot;font-size: 16px&quot;&gt;Book(newId:int, newName:String)&amp;nbsp;&lt;/font&gt;&lt;/p&gt;&lt;p style=&quot;margin: 0px 0px 0px 4px ; font-size: 16px&quot;&gt;&lt;font style=&quot;font-size: 16px&quot;&gt;getId(): int&lt;br&gt;getName()(): String&lt;/font&gt;&lt;/p&gt;&lt;p style=&quot;margin: 0px 0px 0px 4px ; font-size: 16px&quot;&gt;&lt;font style=&quot;font-size: 16px&quot;&gt;getState():int&lt;/font&gt;&lt;/p&gt;&lt;p style=&quot;margin: 0px 0px 0px 4px ; font-size: 16px&quot;&gt;&lt;font style=&quot;font-size: 16px&quot;&gt;setState(state int):void&lt;/font&gt;&lt;/p&gt;" style="verticalAlign=top;align=left;overflow=fill;fontSize=12;fontFamily=Helvetica;html=1;shadow=0;comic=0;labelBackgroundColor=none;strokeWidth=1;" parent="1" vertex="1">
                    <mxGeometry x="270" y="80" width="260" height="353.5" as="geometry"/>
                </mxCell>
                <mxCell id="5d2195bd80daf111-18" value="&lt;p style=&quot;margin: 4px 0px 0px ; text-align: center ; font-size: 15px&quot;&gt;&lt;i&gt;&lt;font style=&quot;font-size: 15px&quot;&gt;Student&lt;/font&gt;&lt;/i&gt;&lt;/p&gt;&lt;hr size=&quot;1&quot; style=&quot;font-size: 15px&quot;&gt;&lt;p style=&quot;margin: 0px 0px 0px 4px ; font-size: 15px&quot;&gt;&lt;font style=&quot;font-size: 15px&quot;&gt;stuId : int&lt;br&gt;credit: int&lt;/font&gt;&lt;/p&gt;&lt;p style=&quot;margin: 0px 0px 0px 4px ; font-size: 15px&quot;&gt;&lt;font style=&quot;font-size: 15px&quot;&gt;name:String&lt;/font&gt;&lt;/p&gt;&lt;p style=&quot;margin: 0px 0px 0px 4px ; font-size: 15px&quot;&gt;&lt;font style=&quot;font-size: 15px&quot;&gt;action:int&lt;/font&gt;&lt;/p&gt;&lt;p style=&quot;margin: 0px 0px 0px 4px ; font-size: 15px&quot;&gt;&lt;font style=&quot;font-size: 15px&quot;&gt;book_name:String&lt;/font&gt;&lt;/p&gt;&lt;hr size=&quot;1&quot; style=&quot;font-size: 15px&quot;&gt;&lt;font style=&quot;font-size: 15px&quot;&gt;&amp;nbsp;Student()&lt;br&gt;&amp;nbsp;Student(id:int, name:String)&lt;br&gt;&amp;nbsp;getStuId(): int&lt;br&gt;&lt;/font&gt;&lt;p style=&quot;margin: 0px 0px 0px 4px ; font-size: 15px&quot;&gt;&lt;font style=&quot;font-size: 15px&quot;&gt;getcredit(): int&lt;br&gt;setcredit(int credit): void&lt;/font&gt;&lt;/p&gt;&lt;p style=&quot;margin: 0px 0px 0px 4px ; font-size: 15px&quot;&gt;&lt;font style=&quot;font-size: 15px&quot;&gt;getAction():int&lt;/font&gt;&lt;/p&gt;&lt;p style=&quot;margin: 0px 0px 0px 4px ; font-size: 15px&quot;&gt;&lt;font style=&quot;font-size: 15px&quot;&gt;getBook():Name&lt;/font&gt;&lt;/p&gt;&lt;p style=&quot;margin: 0px 0px 0px 4px ; font-size: 15px&quot;&gt;&lt;font style=&quot;font-size: 15px&quot;&gt;borrowBook():String&lt;/font&gt;&lt;/p&gt;&lt;p style=&quot;margin: 0px 0px 0px 4px ; font-size: 15px&quot;&gt;&lt;font style=&quot;font-size: 15px&quot;&gt;returnBook(): int&lt;/font&gt;&lt;/p&gt;&lt;p style=&quot;margin: 0px 0px 0px 4px ; font-size: 15px&quot;&gt;&lt;br&gt;&lt;/p&gt;" style="verticalAlign=top;align=left;overflow=fill;fontSize=12;fontFamily=Helvetica;html=1;shadow=0;comic=0;labelBackgroundColor=none;strokeWidth=1;" parent="1" vertex="1">
                    <mxGeometry x="10" y="80" width="250" height="353.5" as="geometry"/>
                </mxCell>
                <mxCell id="IkeX1-RFLbtKXwCguoIJ-2" value="&lt;p style=&quot;margin: 4px 0px 0px ; text-align: center ; font-size: 16px&quot;&gt;&lt;i&gt;Librarian&lt;/i&gt;&lt;/p&gt;&lt;hr size=&quot;1&quot; style=&quot;font-size: 16px&quot;&gt;&lt;p style=&quot;margin: 0px 0px 0px 4px ; font-size: 16px&quot;&gt;&lt;font style=&quot;font-size: 16px&quot;&gt;bookName: String&lt;br&gt;stuId: int&lt;/font&gt;&lt;/p&gt;&lt;p style=&quot;margin: 0px 0px 0px 4px ; font-size: 16px&quot;&gt;&lt;font style=&quot;font-size: 16px&quot;&gt;bookId:int[]&lt;/font&gt;&lt;/p&gt;&lt;p style=&quot;margin: 0px 0px 0px 4px ; font-size: 16px&quot;&gt;&lt;font style=&quot;font-size: 16px&quot;&gt;action:int&lt;/font&gt;&lt;/p&gt;&lt;hr size=&quot;1&quot; style=&quot;font-size: 16px&quot;&gt;&lt;p style=&quot;margin: 0px 0px 0px 4px ; font-size: 16px&quot;&gt;&lt;font style=&quot;font-size: 16px&quot;&gt;Librarian()&lt;/font&gt;&lt;/p&gt;&lt;p style=&quot;margin: 0px 0px 0px 4px ; font-size: 16px&quot;&gt;interact(bookId:int, stuId:int,&amp;nbsp;&lt;/p&gt;&lt;p style=&quot;margin: 0px 0px 0px 4px ; font-size: 16px&quot;&gt;bookName:String, action:int): void&lt;/p&gt;&lt;p style=&quot;margin: 0px 0px 0px 4px ; font-size: 16px&quot;&gt;lentBook(bookId:int, stuId:int):int&lt;/p&gt;&lt;p style=&quot;margin: 0px 0px 0px 4px ; font-size: 16px&quot;&gt;takeBack(bookId:int, stuId:int):int&lt;/p&gt;&lt;p style=&quot;margin: 0px 0px 0px 4px ; font-size: 16px&quot;&gt;sreachBook(name:String, bookId:int)&lt;/p&gt;&lt;p style=&quot;margin: 0px 0px 0px 4px ; font-size: 16px&quot;&gt;: int&lt;/p&gt;" style="verticalAlign=top;align=left;overflow=fill;fontSize=12;fontFamily=Helvetica;html=1;shadow=0;comic=0;labelBackgroundColor=none;strokeWidth=1;" parent="1" vertex="1">
                    <mxGeometry x="540" y="80" width="275" height="353.5" as="geometry"/>
                </mxCell>
            </root>
        </mxGraphModel>
    </diagram>
</mxfile>